<?xml version="1.0" encoding="iso-8859-1"?>
<!-- Generator: Adobe Illustrator 18.1.1, SVG Export Plug-In . SVG Version: 6.00 Build 0)  -->
<svg version="1.1" id="Capa_1" xmlns="http://www.w3.org/2000/svg" xmlns:xlink="http://www.w3.org/1999/xlink" x="0px" y="0px"
	 viewBox="0 0 32.219 32.219" style="enable-background:new 0 0 32.219 32.219;" xml:space="preserve">
<g>
	<path d="M32.144,12.404c-0.492-1.543-3.211-1.898-6.09-2.279c-1.578-0.205-3.371-0.443-3.912-0.842
		c-0.547-0.396-1.305-2.035-1.977-3.482c-1.223-2.632-2.379-5.114-3.996-5.122h-0.033c-1.602,0.027-2.773,2.479-4.014,5.082
		c-0.684,1.439-1.465,3.07-2.008,3.461c-0.55,0.395-2.343,0.615-3.925,0.807c-2.879,0.35-5.6,0.678-6.11,2.213
		c-0.505,1.539,1.481,3.426,3.586,5.424c1.157,1.098,2.466,2.34,2.671,2.98c0.205,0.641-0.143,2.416-0.447,3.979
		c-0.558,2.844-1.084,5.537,0.22,6.498c0.312,0.225,0.702,0.338,1.167,0.328c1.332-0.023,3.245-1.057,5.098-2.061
		c1.387-0.76,2.959-1.613,3.66-1.623c0.678,0.002,2.254,0.881,3.646,1.654c1.891,1.053,3.852,2.141,5.186,2.119
		c0.416-0.008,0.77-0.115,1.059-0.322c1.314-0.945,0.814-3.637,0.285-6.492c-0.291-1.566-0.615-3.344-0.408-3.984
		c0.211-0.637,1.535-1.867,2.703-2.955C30.626,15.81,32.634,13.947,32.144,12.404z M21.483,19.511H10.734v-4.082h10.749V19.511z"/>
	<g>
	</g>
	<g>
	</g>
	<g>
	</g>
	<g>
	</g>
	<g>
	</g>
	<g>
	</g>
	<g>
	</g>
	<g>
	</g>
	<g>
	</g>
	<g>
	</g>
	<g>
	</g>
	<g>
	</g>
	<g>
	</g>
	<g>
	</g>
	<g>
	</g>
</g>
<g>
</g>
<g>
</g>
<g>
</g>
<g>
</g>
<g>
</g>
<g>
</g>
<g>
</g>
<g>
</g>
<g>
</g>
<g>
</g>
<g>
</g>
<g>
</g>
<g>
</g>
<g>
</g>
<g>
</g>
</svg>
